<?xml version="1.0" encoding="UTF-8"?>
<svg xmlns="http://www.w3.org/2000/svg" xmlns:xlink="http://www.w3.org/1999/xlink" width="32px" height="32px" viewBox="0 0 32 32" version="1.1">
<g id="surface1">
<path style=" stroke:none;fill-rule:nonzero;fill:rgb(15.294118%,15.294118%,23.921569%);fill-opacity:1;" d="M 32 16 C 32 24.835938 24.835938 32 16 32 C 7.164062 32 0 24.835938 0 16 C 0 7.164062 7.164062 0 16 0 C 24.835938 0 32 7.164062 32 16 Z M 32 16 "/>
<path style=" stroke:none;fill-rule:nonzero;fill:rgb(0%,70.980392%,39.215686%);fill-opacity:1;" d="M 25.601562 8.34375 C 25.601562 7.847656 25.261719 7.417969 24.777344 7.300781 C 24.292969 7.1875 23.792969 7.421875 23.570312 7.863281 C 23.347656 8.308594 23.460938 8.847656 23.84375 9.167969 L 23.84375 18.179688 L 17.234375 28.464844 L 10.5625 28.464844 C 10.269531 28.125 9.792969 28 9.371094 28.160156 C 8.949219 28.316406 8.671875 28.722656 8.675781 29.171875 C 8.683594 29.625 8.96875 30.023438 9.394531 30.171875 C 9.820312 30.320312 10.292969 30.1875 10.578125 29.839844 L 17.609375 29.839844 C 17.839844 29.839844 18.058594 29.722656 18.183594 29.523438 L 25.109375 18.753906 C 25.179688 18.644531 25.21875 18.515625 25.21875 18.382812 L 25.21875 9.167969 C 25.460938 8.964844 25.601562 8.664062 25.601562 8.34375 Z M 25.601562 8.34375 "/>
<path style=" stroke:none;fill-rule:nonzero;fill:rgb(21.176471%,43.529412%,79.215686%);fill-opacity:1;" d="M 27.132812 14.535156 C 26.8125 14.535156 26.511719 14.675781 26.308594 14.921875 L 22.113281 14.921875 L 18.03125 12.828125 C 17.933594 12.777344 17.828125 12.75 17.71875 12.75 L 9.96875 12.75 C 9.589844 12.75 9.28125 13.058594 9.28125 13.4375 L 9.28125 22.191406 L 5.875 22.191406 C 5.585938 21.847656 5.109375 21.71875 4.6875 21.875 C 4.265625 22.027344 3.980469 22.429688 3.980469 22.878906 C 3.980469 23.332031 4.265625 23.734375 4.6875 23.886719 C 5.109375 24.039062 5.585938 23.914062 5.875 23.566406 L 9.972656 23.566406 C 10.351562 23.566406 10.660156 23.257812 10.660156 22.878906 L 10.660156 14.125 L 17.550781 14.125 L 21.636719 16.21875 C 21.730469 16.269531 21.839844 16.296875 21.949219 16.296875 L 26.308594 16.296875 C 26.625 16.675781 27.164062 16.789062 27.609375 16.566406 C 28.054688 16.34375 28.285156 15.84375 28.171875 15.363281 C 28.058594 14.878906 27.628906 14.539062 27.128906 14.535156 Z M 27.132812 14.535156 "/>
<path style=" stroke:none;fill-rule:nonzero;fill:rgb(96.470588%,78.039216%,32.156863%);fill-opacity:1;" d="M 28.488281 18.019531 C 28.140625 18.019531 27.8125 18.1875 27.613281 18.472656 L 16.984375 18.472656 L 8.574219 14.230469 C 8.480469 14.179688 8.371094 14.15625 8.261719 14.15625 L 6.261719 14.15625 C 5.984375 13.800781 5.511719 13.660156 5.082031 13.804688 C 4.65625 13.945312 4.363281 14.34375 4.351562 14.792969 C 4.339844 15.242188 4.609375 15.652344 5.03125 15.816406 C 5.449219 15.984375 5.929688 15.867188 6.226562 15.53125 L 8.101562 15.53125 L 16.511719 19.769531 C 16.609375 19.820312 16.714844 19.84375 16.820312 19.84375 L 27.726562 19.84375 C 28.066406 20.191406 28.597656 20.261719 29.019531 20.023438 C 29.441406 19.78125 29.648438 19.285156 29.523438 18.816406 C 29.398438 18.347656 28.972656 18.019531 28.488281 18.019531 Z M 28.488281 18.019531 "/>
<path style=" stroke:none;fill-rule:nonzero;fill:rgb(85.882353%,10.588235%,10.588235%);fill-opacity:1;" d="M 26.4375 22.0625 C 25.847656 22.0625 25.367188 22.542969 25.367188 23.132812 C 25.367188 23.179688 25.371094 23.222656 25.375 23.265625 L 23.585938 25.050781 L 8.019531 25.050781 L 8.019531 19.074219 L 12.550781 19.074219 C 12.71875 19.074219 12.882812 19.011719 13.007812 18.902344 L 15.589844 16.617188 C 15.738281 16.488281 15.820312 16.300781 15.820312 16.101562 L 15.820312 8.625 C 16.164062 8.332031 16.285156 7.855469 16.125 7.433594 C 15.96875 7.011719 15.5625 6.734375 15.109375 6.742188 C 14.660156 6.746094 14.261719 7.035156 14.113281 7.460938 C 13.964844 7.886719 14.097656 8.359375 14.445312 8.640625 L 14.445312 15.792969 L 12.289062 17.699219 L 7.332031 17.699219 C 6.953125 17.699219 6.644531 18.007812 6.644531 18.386719 L 6.644531 25.738281 C 6.644531 26.117188 6.953125 26.425781 7.332031 26.425781 L 23.871094 26.425781 C 24.054688 26.425781 24.226562 26.351562 24.355469 26.222656 L 26.378906 24.199219 C 26.398438 24.199219 26.417969 24.199219 26.433594 24.199219 C 26.832031 24.226562 27.210938 24.027344 27.421875 23.6875 C 27.628906 23.347656 27.628906 22.917969 27.421875 22.578125 C 27.214844 22.234375 26.835938 22.039062 26.4375 22.0625 Z M 26.4375 22.0625 "/>
<path style=" stroke:none;fill-rule:nonzero;fill:rgb(100%,100%,100%);fill-opacity:1;" d="M 10.519531 13.429688 C 10.519531 13.671875 10.320312 13.867188 10.078125 13.867188 C 9.835938 13.867188 9.640625 13.671875 9.640625 13.429688 C 9.640625 13.183594 9.835938 12.988281 10.078125 12.988281 C 10.320312 12.988281 10.519531 13.183594 10.519531 13.429688 Z M 10.519531 13.429688 "/>
<path style=" stroke:none;fill-rule:nonzero;fill:rgb(100%,100%,100%);fill-opacity:1;" d="M 13.734375 13.429688 C 13.734375 13.671875 13.535156 13.867188 13.292969 13.867188 C 13.050781 13.867188 12.855469 13.671875 12.855469 13.429688 C 12.855469 13.183594 13.050781 12.988281 13.292969 12.988281 C 13.535156 12.988281 13.734375 13.183594 13.734375 13.429688 Z M 13.734375 13.429688 "/>
<path style=" stroke:none;fill-rule:nonzero;fill:rgb(100%,100%,100%);fill-opacity:1;" d="M 15.5625 9.6875 C 15.5625 9.929688 15.367188 10.125 15.125 10.125 C 14.882812 10.125 14.6875 9.929688 14.6875 9.6875 C 14.6875 9.445312 14.882812 9.25 15.125 9.25 C 15.367188 9.25 15.5625 9.445312 15.5625 9.6875 Z M 15.5625 9.6875 "/>
<path style=" stroke:none;fill-rule:nonzero;fill:rgb(100%,100%,100%);fill-opacity:1;" d="M 15.5625 12.902344 C 15.5625 13.144531 15.367188 13.339844 15.125 13.339844 C 14.882812 13.339844 14.6875 13.144531 14.6875 12.902344 C 14.6875 12.660156 14.882812 12.460938 15.125 12.460938 C 15.367188 12.460938 15.5625 12.660156 15.5625 12.902344 Z M 15.5625 12.902344 "/>
<path style=" stroke:none;fill-rule:nonzero;fill:rgb(100%,100%,100%);fill-opacity:1;" d="M 19.722656 19.191406 C 19.722656 19.4375 19.527344 19.632812 19.28125 19.632812 C 19.039062 19.632812 18.84375 19.4375 18.84375 19.191406 C 18.84375 18.949219 19.039062 18.753906 19.28125 18.753906 C 19.527344 18.753906 19.722656 18.949219 19.722656 19.191406 Z M 19.722656 19.191406 "/>
<path style=" stroke:none;fill-rule:nonzero;fill:rgb(100%,100%,100%);fill-opacity:1;" d="M 22.9375 19.191406 C 22.9375 19.4375 22.738281 19.632812 22.496094 19.632812 C 22.253906 19.632812 22.058594 19.4375 22.058594 19.191406 C 22.058594 18.949219 22.253906 18.753906 22.496094 18.753906 C 22.738281 18.753906 22.9375 18.949219 22.9375 19.191406 Z M 22.9375 19.191406 "/>
<path style=" stroke:none;fill-rule:nonzero;fill:rgb(100%,100%,100%);fill-opacity:1;" d="M 26.433594 19.191406 C 26.433594 19.4375 26.238281 19.632812 25.996094 19.632812 C 25.753906 19.632812 25.554688 19.4375 25.554688 19.191406 C 25.554688 18.949219 25.753906 18.753906 25.996094 18.753906 C 26.238281 18.753906 26.433594 18.949219 26.433594 19.191406 Z M 26.433594 19.191406 "/>
<path style=" stroke:none;fill-rule:nonzero;fill:rgb(100%,100%,100%);fill-opacity:1;" d="M 24.96875 10.855469 C 24.96875 11.097656 24.773438 11.292969 24.53125 11.292969 C 24.289062 11.292969 24.089844 11.097656 24.089844 10.855469 C 24.089844 10.613281 24.289062 10.414062 24.53125 10.414062 C 24.773438 10.414062 24.96875 10.613281 24.96875 10.855469 Z M 24.96875 10.855469 "/>
<path style=" stroke:none;fill-rule:nonzero;fill:rgb(100%,100%,100%);fill-opacity:1;" d="M 24.96875 14.070312 C 24.96875 14.3125 24.773438 14.507812 24.53125 14.507812 C 24.289062 14.507812 24.089844 14.3125 24.089844 14.070312 C 24.089844 13.828125 24.289062 13.628906 24.53125 13.628906 C 24.773438 13.628906 24.96875 13.828125 24.96875 14.070312 Z M 24.96875 14.070312 "/>
<path style=" stroke:none;fill-rule:nonzero;fill:rgb(100%,100%,100%);fill-opacity:1;" d="M 24.96875 17.566406 C 24.96875 17.808594 24.773438 18.007812 24.53125 18.007812 C 24.289062 18.007812 24.089844 17.808594 24.089844 17.566406 C 24.089844 17.324219 24.289062 17.128906 24.53125 17.128906 C 24.773438 17.128906 24.96875 17.324219 24.96875 17.566406 Z M 24.96875 17.566406 "/>
<path style=" stroke:none;fill-rule:nonzero;fill:rgb(100%,100%,100%);fill-opacity:1;" d="M 16.804688 25.746094 C 16.804688 25.988281 16.609375 26.183594 16.367188 26.183594 C 16.125 26.183594 15.925781 25.988281 15.925781 25.746094 C 15.925781 25.503906 16.125 25.304688 16.367188 25.304688 C 16.609375 25.304688 16.804688 25.503906 16.804688 25.746094 Z M 16.804688 25.746094 "/>
<path style=" stroke:none;fill-rule:nonzero;fill:rgb(100%,100%,100%);fill-opacity:1;" d="M 20.019531 25.746094 C 20.019531 25.988281 19.824219 26.183594 19.582031 26.183594 C 19.339844 26.183594 19.140625 25.988281 19.140625 25.746094 C 19.140625 25.503906 19.339844 25.304688 19.582031 25.304688 C 19.824219 25.304688 20.019531 25.503906 20.019531 25.746094 Z M 20.019531 25.746094 "/>
<path style=" stroke:none;fill-rule:nonzero;fill:rgb(100%,100%,100%);fill-opacity:1;" d="M 18.84375 27.832031 C 18.84375 28.078125 18.648438 28.273438 18.40625 28.273438 C 18.160156 28.273438 17.964844 28.078125 17.964844 27.832031 C 17.964844 27.589844 18.160156 27.394531 18.40625 27.394531 C 18.648438 27.394531 18.84375 27.589844 18.84375 27.832031 Z M 18.84375 27.832031 "/>
<path style=" stroke:none;fill-rule:nonzero;fill:rgb(100%,100%,100%);fill-opacity:1;" d="M 21.457031 23.796875 C 21.457031 24.039062 21.261719 24.238281 21.019531 24.238281 C 20.777344 24.238281 20.578125 24.039062 20.578125 23.796875 C 20.578125 23.554688 20.777344 23.359375 21.019531 23.359375 C 21.261719 23.359375 21.457031 23.554688 21.457031 23.796875 Z M 21.457031 23.796875 "/>
<path style=" stroke:none;fill-rule:nonzero;fill:rgb(100%,100%,100%);fill-opacity:1;" d="M 23.164062 21.074219 C 23.164062 21.316406 22.964844 21.511719 22.722656 21.511719 C 22.480469 21.511719 22.285156 21.316406 22.285156 21.074219 C 22.285156 20.832031 22.480469 20.632812 22.722656 20.632812 C 22.964844 20.632812 23.164062 20.832031 23.164062 21.074219 Z M 23.164062 21.074219 "/>
<path style=" stroke:none;fill-rule:nonzero;fill:rgb(100%,100%,100%);fill-opacity:1;" d="M 23.519531 25.746094 C 23.519531 25.988281 23.320312 26.183594 23.078125 26.183594 C 22.835938 26.183594 22.640625 25.988281 22.640625 25.746094 C 22.640625 25.503906 22.835938 25.304688 23.078125 25.304688 C 23.320312 25.304688 23.519531 25.503906 23.519531 25.746094 Z M 23.519531 25.746094 "/>
<path style=" stroke:none;fill-rule:nonzero;fill:rgb(100%,100%,100%);fill-opacity:1;" d="M 7.878906 24.265625 C 7.878906 24.507812 7.683594 24.707031 7.441406 24.707031 C 7.199219 24.707031 7 24.507812 7 24.265625 C 7 24.023438 7.199219 23.828125 7.441406 23.828125 C 7.683594 23.828125 7.878906 24.023438 7.878906 24.265625 Z M 7.878906 24.265625 "/>
<path style=" stroke:none;fill-rule:nonzero;fill:rgb(100%,100%,100%);fill-opacity:1;" d="M 7.878906 20.570312 C 7.878906 20.816406 7.683594 21.011719 7.441406 21.011719 C 7.199219 21.011719 7 20.816406 7 20.570312 C 7 20.328125 7.199219 20.132812 7.441406 20.132812 C 7.683594 20.132812 7.878906 20.328125 7.878906 20.570312 Z M 7.878906 20.570312 "/>
<path style=" stroke:none;fill-rule:nonzero;fill:rgb(100%,100%,100%);fill-opacity:1;" d="M 9.136719 22.917969 C 9.136719 23.160156 8.9375 23.359375 8.695312 23.359375 C 8.453125 23.359375 8.257812 23.160156 8.257812 22.917969 C 8.257812 22.675781 8.453125 22.480469 8.695312 22.480469 C 8.9375 22.480469 9.136719 22.675781 9.136719 22.917969 Z M 9.136719 22.917969 "/>
<path style=" stroke:none;fill-rule:nonzero;fill:rgb(100%,100%,100%);fill-opacity:1;" d="M 10.355469 20.570312 C 10.355469 20.816406 10.15625 21.011719 9.914062 21.011719 C 9.671875 21.011719 9.476562 20.816406 9.476562 20.570312 C 9.476562 20.328125 9.671875 20.132812 9.914062 20.132812 C 10.15625 20.132812 10.355469 20.328125 10.355469 20.570312 Z M 10.355469 20.570312 "/>
<path style=" stroke:none;fill-rule:nonzero;fill:rgb(100%,100%,100%);fill-opacity:1;" d="M 10.214844 25.746094 C 10.214844 25.988281 10.019531 26.183594 9.777344 26.183594 C 9.535156 26.183594 9.335938 25.988281 9.335938 25.746094 C 9.335938 25.503906 9.535156 25.304688 9.777344 25.304688 C 10.019531 25.304688 10.214844 25.503906 10.214844 25.746094 Z M 10.214844 25.746094 "/>
<path style=" stroke:none;fill-rule:nonzero;fill:rgb(100%,100%,100%);fill-opacity:1;" d="M 13.714844 25.746094 C 13.714844 25.988281 13.515625 26.183594 13.273438 26.183594 C 13.03125 26.183594 12.835938 25.988281 12.835938 25.746094 C 12.835938 25.503906 13.03125 25.304688 13.273438 25.304688 C 13.515625 25.304688 13.714844 25.503906 13.714844 25.746094 Z M 13.714844 25.746094 "/>
<path style=" stroke:none;fill-rule:nonzero;fill:rgb(100%,100%,100%);fill-opacity:1;" d="M 15.925781 29.160156 C 15.925781 29.402344 15.730469 29.601562 15.488281 29.601562 C 15.246094 29.601562 15.046875 29.402344 15.046875 29.160156 C 15.046875 28.917969 15.246094 28.722656 15.488281 28.722656 C 15.730469 28.722656 15.925781 28.917969 15.925781 29.160156 Z M 15.925781 29.160156 "/>
<path style=" stroke:none;fill-rule:nonzero;fill:rgb(100%,100%,100%);fill-opacity:1;" d="M 12.835938 29.160156 C 12.835938 29.402344 12.636719 29.601562 12.394531 29.601562 C 12.152344 29.601562 11.957031 29.402344 11.957031 29.160156 C 11.957031 28.917969 12.152344 28.722656 12.394531 28.722656 C 12.636719 28.722656 12.835938 28.917969 12.835938 29.160156 Z M 12.835938 29.160156 "/>
<path style=" stroke:none;fill-rule:nonzero;fill:rgb(100%,100%,100%);fill-opacity:1;" d="M 9.136719 18.398438 C 9.136719 18.640625 8.9375 18.835938 8.695312 18.835938 C 8.453125 18.835938 8.257812 18.640625 8.257812 18.398438 C 8.257812 18.152344 8.453125 17.957031 8.695312 17.957031 C 8.9375 17.957031 9.136719 18.152344 9.136719 18.398438 Z M 9.136719 18.398438 "/>
<path style=" stroke:none;fill-rule:nonzero;fill:rgb(100%,100%,100%);fill-opacity:1;" d="M 7.71875 14.820312 C 7.71875 15.0625 7.519531 15.261719 7.277344 15.261719 C 7.035156 15.261719 6.839844 15.0625 6.839844 14.820312 C 6.839844 14.578125 7.035156 14.382812 7.277344 14.382812 C 7.519531 14.382812 7.71875 14.578125 7.71875 14.820312 Z M 7.71875 14.820312 "/>
<path style=" stroke:none;fill-rule:nonzero;fill:rgb(100%,100%,100%);fill-opacity:1;" d="M 10.792969 15.945312 C 10.792969 16.1875 10.597656 16.382812 10.355469 16.382812 C 10.113281 16.382812 9.914062 16.1875 9.914062 15.945312 C 9.914062 15.699219 10.113281 15.503906 10.355469 15.503906 C 10.597656 15.503906 10.792969 15.699219 10.792969 15.945312 Z M 10.792969 15.945312 "/>
<path style=" stroke:none;fill-rule:nonzero;fill:rgb(100%,100%,100%);fill-opacity:1;" d="M 16.261719 18.683594 C 16.261719 18.925781 16.0625 19.125 15.820312 19.125 C 15.578125 19.125 15.382812 18.925781 15.382812 18.683594 C 15.382812 18.441406 15.578125 18.246094 15.820312 18.246094 C 16.0625 18.246094 16.261719 18.441406 16.261719 18.683594 Z M 16.261719 18.683594 "/>
<path style=" stroke:none;fill-rule:nonzero;fill:rgb(100%,100%,100%);fill-opacity:1;" d="M 12.632812 18.398438 C 12.632812 18.640625 12.4375 18.835938 12.195312 18.835938 C 11.949219 18.835938 11.753906 18.640625 11.753906 18.398438 C 11.753906 18.152344 11.949219 17.957031 12.195312 17.957031 C 12.4375 17.957031 12.632812 18.152344 12.632812 18.398438 Z M 12.632812 18.398438 "/>
<path style=" stroke:none;fill-rule:nonzero;fill:rgb(100%,100%,100%);fill-opacity:1;" d="M 15.5625 16.046875 C 15.5625 16.289062 15.367188 16.488281 15.125 16.488281 C 14.882812 16.488281 14.6875 16.289062 14.6875 16.046875 C 14.6875 15.804688 14.882812 15.609375 15.125 15.609375 C 15.367188 15.609375 15.5625 15.804688 15.5625 16.046875 Z M 15.5625 16.046875 "/>
<path style=" stroke:none;fill-rule:nonzero;fill:rgb(100%,100%,100%);fill-opacity:1;" d="M 16.949219 13.429688 C 16.949219 13.671875 16.75 13.867188 16.507812 13.867188 C 16.265625 13.867188 16.070312 13.671875 16.070312 13.429688 C 16.070312 13.183594 16.265625 12.988281 16.507812 12.988281 C 16.75 12.988281 16.949219 13.183594 16.949219 13.429688 Z M 16.949219 13.429688 "/>
<path style=" stroke:none;fill-rule:nonzero;fill:rgb(100%,100%,100%);fill-opacity:1;" d="M 20.164062 14.378906 C 20.164062 14.625 19.964844 14.820312 19.722656 14.820312 C 19.480469 14.820312 19.285156 14.625 19.285156 14.378906 C 19.285156 14.136719 19.480469 13.941406 19.722656 13.941406 C 19.964844 13.941406 20.164062 14.136719 20.164062 14.378906 Z M 20.164062 14.378906 "/>
<path style=" stroke:none;fill-rule:nonzero;fill:rgb(100%,100%,100%);fill-opacity:1;" d="M 23.183594 15.609375 C 23.183594 15.851562 22.988281 16.046875 22.746094 16.046875 C 22.503906 16.046875 22.304688 15.851562 22.304688 15.609375 C 22.304688 15.367188 22.503906 15.167969 22.746094 15.167969 C 22.988281 15.167969 23.183594 15.367188 23.183594 15.609375 Z M 23.183594 15.609375 "/>
<path style=" stroke:none;fill-rule:nonzero;fill:rgb(100%,100%,100%);fill-opacity:1;" d="M 25.226562 8.34375 C 25.226562 8.730469 24.914062 9.042969 24.53125 9.042969 C 24.144531 9.042969 23.835938 8.730469 23.835938 8.34375 C 23.835938 7.960938 24.144531 7.648438 24.53125 7.648438 C 24.914062 7.648438 25.226562 7.960938 25.226562 8.34375 Z M 25.226562 8.34375 "/>
<path style=" stroke:none;fill-rule:nonzero;fill:rgb(100%,100%,100%);fill-opacity:1;" d="M 10.445312 29.160156 C 10.445312 29.546875 10.132812 29.859375 9.75 29.859375 C 9.363281 29.859375 9.054688 29.546875 9.054688 29.160156 C 9.054688 28.777344 9.363281 28.464844 9.75 28.464844 C 10.132812 28.464844 10.445312 28.777344 10.445312 29.160156 Z M 10.445312 29.160156 "/>
<path style=" stroke:none;fill-rule:nonzero;fill:rgb(100%,100%,100%);fill-opacity:1;" d="M 5.746094 22.878906 C 5.746094 23.265625 5.4375 23.574219 5.050781 23.574219 C 4.667969 23.574219 4.355469 23.265625 4.355469 22.878906 C 4.355469 22.496094 4.667969 22.183594 5.050781 22.183594 C 5.4375 22.183594 5.746094 22.496094 5.746094 22.878906 Z M 5.746094 22.878906 "/>
<path style=" stroke:none;fill-rule:nonzero;fill:rgb(100%,100%,100%);fill-opacity:1;" d="M 6.125 14.820312 C 6.125 15.207031 5.8125 15.515625 5.425781 15.515625 C 5.042969 15.515625 4.730469 15.207031 4.730469 14.820312 C 4.730469 14.4375 5.042969 14.125 5.425781 14.125 C 5.8125 14.125 6.125 14.4375 6.125 14.820312 Z M 6.125 14.820312 "/>
<path style=" stroke:none;fill-rule:nonzero;fill:rgb(100%,100%,100%);fill-opacity:1;" d="M 27.828125 15.609375 C 27.828125 15.992188 27.515625 16.304688 27.132812 16.304688 C 26.746094 16.304688 26.433594 15.992188 26.433594 15.609375 C 26.433594 15.222656 26.746094 14.910156 27.132812 14.910156 C 27.515625 14.910156 27.828125 15.222656 27.828125 15.609375 Z M 27.828125 15.609375 "/>
<path style=" stroke:none;fill-rule:nonzero;fill:rgb(100%,100%,100%);fill-opacity:1;" d="M 29.183594 19.09375 C 29.183594 19.476562 28.871094 19.789062 28.488281 19.789062 C 28.101562 19.789062 27.789062 19.476562 27.789062 19.09375 C 27.789062 18.707031 28.101562 18.394531 28.488281 18.394531 C 28.871094 18.394531 29.183594 18.707031 29.183594 19.09375 Z M 29.183594 19.09375 "/>
<path style=" stroke:none;fill-rule:nonzero;fill:rgb(100%,100%,100%);fill-opacity:1;" d="M 27.132812 23.132812 C 27.132812 23.515625 26.820312 23.828125 26.433594 23.828125 C 26.050781 23.828125 25.738281 23.515625 25.738281 23.132812 C 25.738281 22.746094 26.050781 22.433594 26.433594 22.433594 C 26.820312 22.433594 27.132812 22.746094 27.132812 23.132812 Z M 27.132812 23.132812 "/>
<path style=" stroke:none;fill-rule:nonzero;fill:rgb(100%,100%,100%);fill-opacity:1;" d="M 15.820312 7.8125 C 15.820312 8.199219 15.507812 8.511719 15.125 8.511719 C 14.742188 8.511719 14.429688 8.199219 14.429688 7.8125 C 14.429688 7.429688 14.742188 7.117188 15.125 7.117188 C 15.507812 7.117188 15.820312 7.429688 15.820312 7.8125 Z M 15.820312 7.8125 "/>
<path style=" stroke:none;fill-rule:nonzero;fill:rgb(100%,100%,100%);fill-opacity:1;" d="M 28.285156 5.75 L 3.714844 5.75 C 6.753906 2.105469 11.253906 0 16 0 C 20.746094 0 25.246094 2.105469 28.285156 5.75 Z M 28.285156 5.75 "/>
<path style=" stroke:none;fill-rule:nonzero;fill:rgb(96.470588%,78.039216%,32.156863%);fill-opacity:1;" d="M 13.488281 5.3125 L 10.519531 5.3125 C 10.175781 5.3125 9.894531 5.03125 9.894531 4.6875 C 9.894531 4.34375 10.175781 4.0625 10.519531 4.0625 L 13.488281 4.0625 C 13.835938 4.0625 14.113281 4.34375 14.113281 4.6875 C 14.113281 5.03125 13.835938 5.3125 13.488281 5.3125 Z M 13.488281 5.3125 "/>
<path style=" stroke:none;fill-rule:nonzero;fill:rgb(85.882353%,10.588235%,10.588235%);fill-opacity:1;" d="M 13.488281 3.511719 L 10.519531 3.511719 C 10.175781 3.511719 9.894531 3.230469 9.894531 2.886719 C 9.894531 2.542969 10.175781 2.261719 10.519531 2.261719 L 13.488281 2.261719 C 13.835938 2.261719 14.113281 2.542969 14.113281 2.886719 C 14.113281 3.230469 13.835938 3.511719 13.488281 3.511719 Z M 13.488281 3.511719 "/>
<path style=" stroke:none;fill-rule:nonzero;fill:rgb(0%,70.980392%,39.215686%);fill-opacity:1;" d="M 22.691406 5.3125 L 19.722656 5.3125 C 19.378906 5.3125 19.097656 5.03125 19.097656 4.6875 C 19.097656 4.34375 19.378906 4.0625 19.722656 4.0625 L 22.691406 4.0625 C 23.039062 4.0625 23.316406 4.34375 23.316406 4.6875 C 23.316406 5.03125 23.039062 5.3125 22.691406 5.3125 Z M 22.691406 5.3125 "/>
<path style=" stroke:none;fill-rule:nonzero;fill:rgb(21.176471%,43.529412%,79.215686%);fill-opacity:1;" d="M 22.691406 3.511719 L 19.722656 3.511719 C 19.378906 3.511719 19.097656 3.230469 19.097656 2.886719 C 19.097656 2.542969 19.378906 2.261719 19.722656 2.261719 L 22.691406 2.261719 C 23.039062 2.261719 23.316406 2.542969 23.316406 2.886719 C 23.316406 3.230469 23.039062 3.511719 22.691406 3.511719 Z M 22.691406 3.511719 "/>
<path style=" stroke:none;fill-rule:nonzero;fill:rgb(15.294118%,15.294118%,23.921569%);fill-opacity:1;" d="M 8.519531 2.261719 L 9.308594 2.261719 C 9.421875 2.261719 9.515625 2.355469 9.515625 2.46875 L 9.515625 3.304688 C 9.515625 3.417969 9.421875 3.511719 9.308594 3.511719 L 8.519531 3.511719 C 8.40625 3.511719 8.3125 3.417969 8.3125 3.304688 L 8.3125 2.46875 C 8.3125 2.355469 8.40625 2.261719 8.519531 2.261719 Z M 8.519531 2.261719 "/>
<path style=" stroke:none;fill-rule:nonzero;fill:rgb(15.294118%,15.294118%,23.921569%);fill-opacity:1;" d="M 8.519531 4.0625 L 9.308594 4.0625 C 9.421875 4.0625 9.515625 4.15625 9.515625 4.269531 L 9.515625 5.109375 C 9.515625 5.222656 9.421875 5.3125 9.308594 5.3125 L 8.519531 5.3125 C 8.40625 5.3125 8.3125 5.222656 8.3125 5.109375 L 8.3125 4.269531 C 8.3125 4.15625 8.40625 4.0625 8.519531 4.0625 Z M 8.519531 4.0625 "/>
<path style=" stroke:none;fill-rule:nonzero;fill:rgb(15.294118%,15.294118%,23.921569%);fill-opacity:1;" d="M 17.582031 2.261719 L 18.371094 2.261719 C 18.484375 2.261719 18.578125 2.355469 18.578125 2.46875 L 18.578125 3.304688 C 18.578125 3.417969 18.484375 3.511719 18.371094 3.511719 L 17.582031 3.511719 C 17.46875 3.511719 17.375 3.417969 17.375 3.304688 L 17.375 2.46875 C 17.375 2.355469 17.46875 2.261719 17.582031 2.261719 Z M 17.582031 2.261719 "/>
<path style=" stroke:none;fill-rule:nonzero;fill:rgb(15.294118%,15.294118%,23.921569%);fill-opacity:1;" d="M 17.582031 4.0625 L 18.371094 4.0625 C 18.484375 4.0625 18.578125 4.15625 18.578125 4.269531 L 18.578125 5.109375 C 18.578125 5.222656 18.484375 5.3125 18.371094 5.3125 L 17.582031 5.3125 C 17.46875 5.3125 17.375 5.222656 17.375 5.109375 L 17.375 4.269531 C 17.375 4.15625 17.46875 4.0625 17.582031 4.0625 Z M 17.582031 4.0625 "/>
</g>
</svg>
